<svg width="18" height="19" viewBox="0 0 18 19" fill="none" xmlns="http://www.w3.org/2000/svg">
<path fill-rule="evenodd" clip-rule="evenodd" d="M11.3303 12.6099C9.93741 13.7216 8.17119 14.2583 6.39443 14.1099C4.61767 13.9615 2.96525 13.1392 1.77655 11.8119C0.587856 10.4846 -0.0468836 8.75304 0.0027008 6.9729C0.0522852 5.19276 0.78243 3.49916 2.04317 2.23993C3.30392 0.980695 4.99956 0.251426 6.78183 0.201901C8.5641 0.152376 10.2977 0.786355 11.6266 1.97363C12.9555 3.1609 13.7788 4.81134 13.9274 6.58597C14.076 8.3606 13.5386 10.1247 12.4256 11.516L17.7533 16.8362C17.8295 16.9071 17.8906 16.9926 17.9329 17.0875C17.9753 17.1825 17.998 17.285 17.9999 17.3889C18.0017 17.4928 17.9826 17.5961 17.9436 17.6924C17.9046 17.7888 17.8466 17.8764 17.773 17.9499C17.6994 18.0234 17.6118 18.0813 17.5153 18.1203C17.4188 18.1592 17.3154 18.1783 17.2114 18.1765C17.1073 18.1746 17.0047 18.1519 16.9096 18.1096C16.8145 18.0673 16.729 18.0063 16.658 17.9302L11.3303 12.6099ZM3.14141 10.9979C2.38301 10.2403 1.86648 9.27516 1.65709 8.22447C1.4477 7.17377 1.55485 6.08465 1.96501 5.09476C2.37517 4.10487 3.06992 3.25864 3.96146 2.66302C4.85299 2.06739 5.9013 1.7491 6.9739 1.74838C8.0465 1.74766 9.09524 2.06454 9.98758 2.65897C10.8799 3.25339 11.5758 4.09869 11.9873 5.08803C12.3988 6.07736 12.5074 7.16633 12.2994 8.21731C12.0915 9.26829 11.5762 10.2341 10.8189 10.9927L10.8137 10.9979L10.8085 11.002C9.79081 12.0161 8.4117 12.5853 6.97411 12.5845C5.53652 12.5838 4.15802 12.0131 3.14141 10.9979Z" fill="#11998E"/>
</svg>
